<?xml version="1.0" encoding="UTF-8" standalone="no"?>
<svg id="svg4755" xmlns:rdf="http://www.w3.org/1999/02/22-rdf-syntax-ns#" xmlns="http://www.w3.org/2000/svg" height="439.66mm" width="436.9mm" version="1.1" xmlns:cc="http://creativecommons.org/ns#" xmlns:dc="http://purl.org/dc/elements/1.1/" viewBox="0 0 1548.0877 1557.8543">
<g id="layer1" transform="translate(2135.4 156.97)">
<path id="path8" d="m-1787.4-156.97-157.2 164.54c140.67 297.13 47.987 500.46 36.484 572.87-81.554-96.463-155.06-39.641-163.13 0.35073-36.836 118.92-64.198 161.72-64.198 161.72 4.0168 38.383 41.045 58.233 51.92 57.882 3.8589 230.13 203.47 351.16 427.63 427.63 197.41 67.637 277.31 152.35 294.49 172.86 17.177-20.516 97.078-105.23 294.49-172.86 224.17-76.476 423.78-197.51 427.63-427.63 10.875 0.35119 47.903-19.498 51.92-57.882 0 0-27.363-42.797-64.198-161.72-8.0668-39.992-81.573-96.814-163.13-0.35073-11.503-72.414-104.19-275.74 36.484-572.87l-157.16-164.53h-426.04-426.04zm11.204 33.986h414.83 414.83l127.7 141.37c-116.82 256.09-52.973 458.86-36.484 563.05 18.788 87.452 14.315 50.124 17.954 112.89 0.0971-1.3746 0.18735-2.7545 0.26689-4.1425v8.7713c0.008 0.13123 0.0126 0.22636 0.0205 0.35838l-0.0205-0.009v-0.34941c-0.10146-1.6954-0.17605-3.062-0.26689-4.6287-13.175 186.57-187.29 249.24-361.41 310.89-96.909 36.183-152.19 89.721-162.59 100.41-10.4-10.686-65.678-64.225-162.59-100.41-174.12-61.645-348.24-124.32-361.41-310.89-0.091 1.5668-0.1654 2.9333-0.2669 4.6287v0.34941l-0.02 0.009c0.01-0.13202 0.013-0.22715 0.02-0.35838v-8.7713c0.08 1.3881 0.1698 2.7679 0.2669 4.1425 3.639-62.763-0.8346-25.434 17.954-112.89 16.489-104.19 80.333-306.96-36.484-563.05l127.7-141.37zm-221.73 674.34c33.495-0.33779 71.866 27.465 78.297 126.94 10.173 251.88 283.45 324.49 402.73 376.06 131.7 72.578 153.32 105.49 155.54 109.4 2.2243-3.9074 23.845-36.823 155.54-109.4 119.27-51.57 392.55-124.18 402.73-376.06 11.929-184.53 133.78-122.42 130.5-91.56-2.0398 19.209-12.62 35.53-25.169 46.679-0.007 0.007-0.0145 0.0125-0.0218 0.0191-0.007 0.007-0.008 0.007-0.0139 0.0132-3.6482 3.2624-7.2714 5.8846-11.079 8.2194 0 0 0.007 0.009 0.007 0.009-19.76 12.263-39.44 11.238-37.367-10.428 1.2498-12.706 4.7872-17.341 9.2225-17.463 10.5-0.28676 26.025 24.724 28.138 27.882l11.077-8.2233c-0.0588-0.0621-33.378-50.917-33.729-50.917-44.202 16.14-33.7 88.428-13.354 110.18 0 0 61.537 71.539 77.55 117.14 5.961 57.531-15.791 240.3-352.21 379.22 0 0-262.8 79.968-341.82 182.23-79.014-102.26-341.82-182.23-341.82-182.23-336.42-138.92-358.18-321.69-352.21-379.22 16.014-45.605 77.55-117.14 77.55-117.14 20.347-21.751 30.848-94.039-13.354-110.18-0.3508 0-33.67 50.855-33.729 50.917l11.076 8.2233c2.1129-3.158 17.638-28.168 28.138-27.882 4.4353 0.12114 7.9728 4.7568 9.2226 17.463 2.0724 21.666-17.607 22.691-37.367 10.428 0.0006 0 0.01-0.008 0.01-0.009-3.8078-2.3348-7.431-4.9571-11.079-8.2194-0.01-0.007-0.01-0.009-0.014-0.0132-0.01-0.007-0.014-0.0125-0.022-0.0191-12.549-11.149-23.129-27.47-25.169-46.679-1.5103-14.224 23.564-35.088 52.205-35.376zm1336.2 64.835c0-0.70166 49.816 105.6 51.218 122.44 9.0529 25.008-21.751 38.239-42.098 43.851-0.3508 0-85.25-117.17-85.25-117.17 30.521 7.3671 72.615-14.385 76.127-49.114zm-1399.3 0c3.5129 34.729 45.607 56.48 76.127 49.113 0 0-84.899 117.17-85.25 117.17-20.347-5.6124-51.151-18.843-42.098-43.851 1.4028-16.84 51.218-123.14 51.218-122.44z"/>
</g>
</svg>
