<?xml version="1.0" encoding="utf-8"?>

<!DOCTYPE svg PUBLIC "-//W3C//DTD SVG 1.1//EN" "http://www.w3.org/Graphics/SVG/1.1/DTD/svg11.dtd">
<!-- Uploaded to: SVG Repo, www.svgrepo.com, Generator: SVG Repo Mixer Tools -->
<svg height="800px" width="800px" version="1.1" id="_x32_" xmlns="http://www.w3.org/2000/svg" xmlns:xlink="http://www.w3.org/1999/xlink" 
	 viewBox="0 0 512 512"  xml:space="preserve">
<style type="text/css">
	.st0{fill:#000000;}
</style>
<g>
	<path class="st0" d="M479.489,19.514C466.578,6.57,447.858,0,423.868,0c-5.645,0-11.732,0.36-18.098,1.063
		C344.348,7.887,264.583,10.48,256,10.743c-8.583-0.262-88.348-2.856-149.77-9.68C99.865,0.36,93.777,0,88.132,0
		c-23.99,0-42.71,6.57-55.621,19.514C12.907,39.183,12.972,66.093,13.038,85.746v3.78l0.048,0.802
		c0.18,2.946,32.27,152.176,46.425,191.842c9.115,25.56-15.694,76.067-15.694,158.238c0.352,22.197,11.488,41.49,31.46,54.402
		C92.664,506.052,116.515,512,144.243,512c7.937,0,16.282-0.482,24.808-1.432c50.458-5.604,79.414-8.075,86.949-8.689
		c7.536,0.614,36.492,3.085,86.942,8.689c8.533,0.95,16.879,1.432,24.816,1.432c27.728,0,51.578-5.948,68.965-17.19
		c19.972-12.912,31.108-32.205,31.46-54.402c0-82.171-24.807-132.678-15.692-158.238c14.154-39.666,46.244-188.896,46.424-191.842
		l0.048-0.802v-3.78C499.028,66.093,499.094,39.183,479.489,19.514z M441.934,439.312c0,31.28-35.755,51.858-96.089,45.156
		c-60.333-6.709-89.846-8.943-89.846-8.943s-29.512,2.234-89.846,8.943c-60.334,6.701-96.08-13.877-96.08-45.156
		c0,0-6.701-78.21,35.747-120.667c12.028-12.379,29.046-6.701,24.578,8.943c-4.467,15.644,4.189,75.02,19.833,99.598
		c0-2.234,20.111-49.157,35.755-44.69c15.644,4.476,9.687,44.69,20.855,51.391c2.234-15.636,13.41-51.391,29.046-46.915
		c15.644,4.467,11.177,31.28,20.111,42.448c8.943-11.168,4.476-37.98,20.111-42.448c15.644-4.476,26.812,31.28,29.054,46.915
		c11.168-6.701,5.204-46.915,20.848-51.391c15.643-4.467,35.754,42.456,35.754,44.69c15.644-24.578,24.3-83.954,19.833-99.598
		c-4.468-15.644,12.559-21.322,24.578-8.943C448.627,361.101,441.934,439.312,441.934,439.312z M243.686,256.593L256,291.072
		l12.314-34.479c83.718,0,85.207,91.433,81.264,105.891c-0.033,0.115-0.066,0.237-0.099,0.36
		c-6.071-4.091-13.189-6.914-21.305-6.914c-3.174,0-6.333,0.442-9.377,1.309c-7.486,2.144-13.091,6.071-17.329,10.94
		c-6.251-4.819-13.746-7.863-22.681-7.863c-3.321,0-6.66,0.475-9.891,1.399c-5.089,1.448-9.336,3.624-12.895,6.268
		c-3.559-2.643-7.805-4.819-12.887-6.268c-3.24-0.924-6.578-1.399-9.9-1.399c-8.935,0-16.422,3.044-22.68,7.863
		c-4.239-4.869-9.835-8.796-17.33-10.94c-3.044-0.867-6.202-1.309-9.376-1.309c-8.117,0-15.235,2.823-21.306,6.914
		c-0.032-0.123-0.065-0.245-0.098-0.36C158.488,348.026,159.969,256.593,243.686,256.593z M472.699,88.733
		c0,0-7.561,124.357-73.057,184.69c-13.246,13.64-32.008,7.38-27.09-9.851c4.926-17.239,17.248-125.584,0-152.674
		c0,2.462-15.594,54.172-32.825,49.247c-17.239-4.926-17.239-49.247-29.554-56.635c-2.454,17.239-14.776,56.635-32.008,51.709
		c-17.239-4.926-12.314-34.47-22.165-46.784c-9.843,12.314-4.926,41.859-22.165,46.784c-17.231,4.926-29.545-34.47-32.008-51.709
		c-12.314,7.388-12.314,51.709-29.554,56.635c-17.231,4.926-32.825-46.784-32.825-49.247c-17.239,27.082-4.926,135.435,0,152.667
		c4.926,17.239-13.844,23.498-27.09,9.851C46.862,213.09,39.302,88.733,39.302,88.733c0-29.545-2.455-68.949,64.031-61.561
		C169.82,34.56,256,37.023,256,37.023s86.18-2.462,152.667-9.851C475.153,19.784,472.699,59.188,472.699,88.733z"/>
</g>
</svg>